<svg width="294" height="203" viewBox="0 0 294 203" fill="none" xmlns="http://www.w3.org/2000/svg">
<rect width="294" height="203" rx="7" fill="black"/>
<path fill-rule="evenodd" clip-rule="evenodd" d="M17 19C17 15.134 20.134 12 24 12H164H178H193C204.031 12 214.954 14.315 225.145 18.8128C235.337 23.3106 244.597 29.9031 252.397 38.2139C260.197 46.5248 266.384 56.3912 270.606 67.2498C274.827 78.1085 277 89.7467 277 101.5C277 113.253 274.827 124.892 270.606 135.75C266.384 146.609 260.197 156.475 252.397 164.786C244.597 173.097 235.337 179.689 225.145 184.187C214.954 188.685 204.031 191 193 191H164V41.3277H109V184C109 187.866 105.866 191 102 191H87C83.134 191 80 187.866 80 184V41.3277H24C20.134 41.3277 17 38.1937 17 34.3277V19ZM213.5 59.9464L222.593 88.6592H252.018L228.212 106.405L237.305 135.118L213.5 117.372L189.695 135.118L198.788 106.405L174.982 88.6592H204.407L213.5 59.9464Z" fill="#4595FF"/>
</svg>
